<svg width="24" height="24" viewBox="0 0 24 24" fill="none" xmlns="http://www.w3.org/2000/svg">
<g clip-path="url(#clip0_1_49)">
<path d="M19.95 5.97C19.9 4.93 19.06 4.09 18.03 4.05C17.33 4.02 16.66 4 16.01 4C10.98 4 7.49 4.97 5.55 6.91C1.87 10.59 2.4 15.81 5.64 18.81C5.65 18.81 5.65 18.81 5.65 18.81C7.16 14.59 10.17 11.65 13.32 10.01C13.11 10.19 8.62 13.59 7.81 20.26C8.86 20.74 10.01 21.01 11.17 21.01C13.22 21.01 15.33 20.21 17.09 18.46C19.28 16.26 20.23 12.1 19.95 5.97Z" fill="#E1E5E8"/>
</g>
<defs>
<clipPath id="clip0_1_49">
<rect width="24" height="24" fill="white"/>
</clipPath>
</defs>
</svg>
